<?xml version="1.0" standalone="no"?>
<!DOCTYPE svg PUBLIC "-//W3C//DTD SVG 20010904//EN"
 "http://www.w3.org/TR/2001/REC-SVG-20010904/DTD/svg10.dtd">
<svg version="1.0" xmlns="http://www.w3.org/2000/svg"
 width="512.000000pt" height="512.000000pt" viewBox="0 0 512.000000 512.000000"
 preserveAspectRatio="xMidYMid meet">

<g transform="translate(0.000000,512.000000) scale(0.100000,-0.100000)"
fill="#000000" stroke="none">
<path d="M3163 2911 c-48 -22 -68 -57 -78 -133 -6 -47 -6 -47 -48 -50 -35 -2
-43 -7 -45 -25 -3 -21 1 -23 42 -23 l46 0 0 -228 c0 -239 6 -273 44 -259 14 6
16 32 18 224 0 120 2 223 3 228 2 6 3 16 4 23 1 8 22 12 72 12 67 0 70 1 67
23 -3 20 -9 22 -68 25 -36 2 -69 7 -73 11 -10 10 2 86 17 107 7 9 37 22 67 28
42 10 54 17 54 32 0 27 -67 30 -122 5z"/>
<path d="M3441 2917 c-8 -11 -11 -109 -9 -368 l3 -354 25 0 25 0 0 365 c0 326
-2 365 -16 368 -9 1 -21 -3 -28 -11z"/>
<path d="M2666 2838 c-9 -12 -16 -39 -16 -60 0 -36 -1 -37 -42 -40 -42 -3 -43
-4 -43 -38 0 -34 1 -35 42 -38 l41 -3 4 -192 c4 -209 7 -225 61 -257 46 -28
132 -28 147 1 18 32 -11 69 -53 69 -55 0 -57 7 -57 201 l0 178 53 3 52 3 0 35
0 35 -52 3 -53 3 0 37 c0 44 -23 82 -50 82 -10 0 -26 -10 -34 -22z"/>
<path d="M3811 2719 c-108 -21 -185 -110 -197 -228 -22 -205 147 -349 336
-286 104 35 160 112 168 232 8 123 -38 213 -131 257 -62 29 -116 37 -176 25z
m132 -63 c125 -52 157 -252 57 -357 -61 -64 -168 -75 -242 -26 -67 46 -104
163 -79 255 14 50 63 109 106 128 39 17 117 17 158 0z"/>
<path d="M365 2684 c-58 -20 -112 -68 -140 -125 -53 -104 -22 -255 67 -319
106 -77 294 -62 372 30 31 38 32 44 6 70 -23 23 -39 19 -92 -23 -39 -31 -101
-44 -160 -33 -37 7 -106 63 -92 75 5 4 79 32 164 61 182 62 200 72 200 106 0
53 -64 130 -132 158 -46 20 -139 19 -193 0z m155 -79 c34 -18 74 -65 63 -76
-7 -7 -269 -109 -280 -109 -15 0 6 110 25 137 41 58 130 80 192 48z"/>
<path d="M780 2685 c-10 -12 -2 -39 46 -148 31 -72 76 -175 99 -227 47 -107
73 -132 122 -115 33 12 31 9 144 268 98 226 99 237 33 237 -43 0 -48 -7 -124
-200 -34 -85 -65 -161 -69 -169 -5 -8 -33 48 -75 155 -37 93 -74 179 -82 192
-17 26 -74 31 -94 7z"/>
<path d="M1495 2681 c-51 -23 -111 -89 -124 -138 -6 -21 -11 -67 -11 -103 1
-142 83 -235 219 -247 75 -7 134 11 182 54 40 36 48 60 27 81 -20 20 -47 14
-87 -18 -21 -17 -54 -33 -73 -36 -72 -12 -151 38 -164 104 l-6 32 180 0 c209
0 207 -1 200 85 -10 123 -105 205 -237 205 -42 0 -81 -7 -106 -19z m173 -75
c38 -20 61 -47 68 -84 l7 -32 -142 0 c-157 0 -160 2 -121 65 36 58 126 83 188
51z"/>
<path d="M1986 2684 c-14 -13 -16 -49 -16 -238 0 -203 2 -224 18 -239 26 -23
58 -21 76 5 13 18 16 53 16 168 0 157 6 179 53 214 22 16 43 21 88 21 53 -1
63 -4 90 -31 40 -40 48 -82 49 -241 0 -120 2 -133 19 -143 27 -14 47 -13 65 6
13 13 16 43 16 167 0 84 -5 169 -10 189 -24 85 -102 138 -205 138 -60 0 -135
-25 -150 -50 -5 -8 -14 -1 -26 19 -21 35 -57 41 -83 15z"/>
<path d="M4190 2682 c0 -9 35 -123 78 -252 66 -196 82 -235 99 -238 11 -2 24
3 30 10 5 7 41 101 78 208 38 107 71 199 75 203 4 4 40 -85 81 -199 72 -202
94 -243 119 -218 17 17 171 476 165 492 -3 7 -15 12 -27 10 -18 -2 -27 -18
-51 -98 -79 -260 -99 -322 -106 -314 -4 5 -20 45 -36 89 -97 280 -116 325
-140 325 -20 0 -27 -12 -53 -82 -96 -264 -125 -339 -132 -331 -3 4 -21 58 -39
118 -84 280 -90 295 -116 295 -17 0 -25 -6 -25 -18z"/>
</g>
</svg>
